<svg xmlns="http://www.w3.org/2000/svg" width="17" height="12" viewBox="0 0 17 12">
    <path fill="#FFF" fill-rule="nonzero" d="M15.817 5.273h-.07V2.455C15.747 1.102 14.663 0 13.331 0H3.669C2.337 0 1.253 1.102 1.253 2.455v2.818h-.07C.531 5.273 0 5.803 0 6.455V12h3.221v-.454c0-.35.281-.637.627-.637h9.305c.346 0 .627.286.627.637l-.001.454H17V6.455c0-.652-.531-1.182-1.183-1.182zM1.789 2.455c0-1.053.843-1.91 1.88-1.91h9.663c1.035 0 1.878.857 1.878 1.91v2.818h-.536v-.09c0-1.154-.924-2.092-2.059-2.092h-1.789c-1.134 0-2.058.938-2.058 2.092v.09h-.536v-.09c0-1.154-.924-2.092-2.06-2.092H4.385c-1.134 0-2.058.938-2.058 2.092v.09H1.79V2.455zm12.348 2.818H9.305v-.09c0-.853.682-1.547 1.522-1.547h1.789c.839 0 1.522.694 1.522 1.547l-.001.09zm-6.442 0H2.863v-.09c0-.853.682-1.547 1.522-1.547h1.789c.838 0 1.521.694 1.521 1.547v.09zm-6.512.545h14.633c.357 0 .647.286.647.637V8.91H.537V6.455c0-.351.29-.637.646-.637zm13.13 5.637a1.173 1.173 0 0 0-1.16-1.091H3.848c-.612 0-1.114.481-1.16 1.09H.537v-2h15.926v2h-2.15z"/>
</svg>
