<svg xmlns="http://www.w3.org/2000/svg" width="15" height="14" viewBox="0 0 15 14">
    <path fill="#FFF" fill-rule="nonzero" d="M15 6.852a.357.357 0 0 0-.11-.257.381.381 0 0 0-.264-.106H3.536V1.736c.076-.6.601-1.05 1.224-1.05s1.149.45 1.225 1.05v.798h.748v-.798C6.634.751 5.78 0 4.76 0S2.886.751 2.787 1.736V6.49H.374A.369.369 0 0 0 0 6.852V7.94c0 1.092.424 2.143 1.186 2.946a4.546 4.546 0 0 0 2.928 1.39c.182.996 1.072 1.722 2.114 1.724h2.544c1.042-.002 1.932-.728 2.114-1.723a4.546 4.546 0 0 0 2.928-1.39A4.283 4.283 0 0 0 15 7.94V6.852zm-6.228 6.422H6.228c-.623 0-1.172-.4-1.346-.98h5.236c-.174.58-.723.98-1.346.98zm5.48-5.334c0 .963-.395 1.885-1.096 2.566a3.8 3.8 0 0 1-2.645 1.063H4.49a3.8 3.8 0 0 1-2.645-1.063A3.577 3.577 0 0 1 .748 7.94v-.725h13.504v.725z"/>
</svg>
