<svg xmlns="http://www.w3.org/2000/svg" width="16" height="13" viewBox="0 0 16 13">
    <g fill="#FFF" fill-rule="nonzero">
        <path d="M14.897 5.448l-1.081-3.659C13.512.76 12.628.07 11.619.07H4.38c-1.01 0-1.893.691-2.196 1.72L1.103 5.448c-.612.304-1.04.969-1.04 1.737v2.188c0 1.056.803 1.918 1.793 1.918v1.096c0 .3.232.548.513.548h2.047c.281 0 .512-.244.512-.548V11.29h6.144v1.096c0 .3.231.548.512.548h2.047c.282 0 .513-.244.513-.548V11.29c.987 0 1.794-.859 1.794-1.918V7.185c0-.769-.429-1.433-1.041-1.737zM2.672 1.953c.237-.802.925-1.34 1.71-1.34h7.24c.784 0 1.472.538 1.71 1.34l.977 3.314H1.691l.98-3.314zm-.306 10.434V11.29h2.046v1.096H2.366zm9.218 0V11.29h2.047v1.096h-2.047zm3.84-3.014c0 .755-.574 1.37-1.28 1.37H1.856c-.706 0-1.281-.615-1.281-1.37V7.185c0-.755.575-1.37 1.281-1.37h12.29c.707 0 1.282.615 1.282 1.37v2.188h-.003z"/>
        <path d="M3.903 6.637c-.847 0-1.537.738-1.537 1.644 0 .905.69 1.643 1.537 1.643s1.538-.738 1.538-1.643c0-.906-.69-1.644-1.538-1.644zm0 2.736c-.565 0-1.025-.49-1.025-1.096 0-.604.46-1.095 1.025-1.095.566 0 1.025.49 1.025 1.095s-.46 1.096-1.025 1.096zM12.097 6.637c-.847 0-1.538.738-1.538 1.644 0 .905.69 1.643 1.538 1.643.847 0 1.537-.738 1.537-1.643 0-.906-.69-1.644-1.537-1.644zm0 2.736c-.566 0-1.025-.49-1.025-1.096 0-.604.46-1.095 1.025-1.095s1.025.49 1.025 1.095-.46 1.096-1.025 1.096zM5.953 8.007h4.097v.548H5.953z"/>
    </g>
</svg>
