<svg xmlns="http://www.w3.org/2000/svg" width="11" height="10" viewBox="0 0 11 10">
    <path fill="#FCFCFC" fill-rule="nonzero" d="M10.704.003c-.01.002-.021.003-.032.008L.144 4.087a.134.134 0 0 0-.056.04c-.198.251-.009.517.05.588.01.012.02.021.034.03l1.664 1.032c.009.005.018.01.027.013l-.003.006 1.412.75a.15.15 0 0 0-.01.058l.05 2.557c.002.128.141.194.226.107l1.5-1.517c.3.191.591.396.883.6.757.527 1.194-.367 1.194-.367s3.162-6.293 3.68-7.197c.465-.81.007-.796-.091-.784zM3.655 6.209l-1.28-.68 7.277-4.44-5.997 5.12z"/>
</svg>
